<svg width="88" height="36" viewBox="0 0 88 36" fill="none" xmlns="http://www.w3.org/2000/svg">
<path d="M10.12 20L9.28 17.34H4.62L3.78 20H1.4L5.94 6.4H8.06L12.62 20H10.12ZM5.92 13.18L5.3 15.14H8.58L7.96 13.18L6.96 9.74L5.92 13.18ZM24.9317 20L24.0917 17.34H19.4317L18.5917 20H16.2117L20.7517 6.4H22.8717L27.4317 20H24.9317ZM20.7317 13.18L20.1117 15.14H23.3917L22.7717 13.18L21.7717 9.74L20.7317 13.18ZM32.5034 20V6.4H37.1034C38.7301 6.4 39.9701 6.85333 40.8234 7.76C41.6768 8.66667 42.1034 10 42.1034 11.76V14.62C42.1034 16.3933 41.6768 17.7333 40.8234 18.64C39.9701 19.5467 38.7301 20 37.1034 20H32.5034ZM37.0034 8.7H34.9034V17.7H37.0034C37.9501 17.7 38.6234 17.4667 39.0234 17C39.4368 16.5333 39.6434 15.74 39.6434 14.62V11.76C39.6434 10.6533 39.4368 9.86667 39.0234 9.4C38.6234 8.93333 37.9501 8.7 37.0034 8.7ZM55.9569 17.7V20H48.0769V6.4H55.7569V8.7H50.4769V11.96H55.1569V14.26H50.4769V17.7H55.9569ZM64.5595 17.98C66.1062 17.98 66.8795 17.4067 66.8795 16.26C66.8795 15.7933 66.7595 15.4267 66.5195 15.16C66.2929 14.8933 65.8662 14.66 65.2395 14.46L63.5995 13.92C61.6395 13.28 60.6595 11.9933 60.6595 10.06C60.6595 8.94 61.0062 8.02 61.6995 7.3C62.4062 6.56667 63.5062 6.2 64.9995 6.2C65.6262 6.2 66.2462 6.27333 66.8595 6.42C67.4729 6.55333 68.1262 6.77333 68.8195 7.08L68.0795 9.14C67.4395 8.88667 66.8929 8.70667 66.4395 8.6C65.9995 8.48 65.5462 8.42 65.0795 8.42C64.4662 8.42 63.9795 8.53333 63.6195 8.76C63.2729 8.97333 63.0995 9.36667 63.0995 9.94C63.0995 10.3667 63.2195 10.72 63.4595 11C63.7129 11.2667 64.1262 11.4933 64.6995 11.68L66.3395 12.22C67.3262 12.5533 68.0662 13.04 68.5595 13.68C69.0662 14.3067 69.3195 15.14 69.3195 16.18C69.3195 17.38 68.9395 18.3533 68.1795 19.1C67.4195 19.8333 66.2262 20.2 64.5995 20.2C63.9595 20.2 63.2929 20.1267 62.5995 19.98C61.9195 19.82 61.1729 19.5533 60.3595 19.18L61.0995 17.12C61.8462 17.44 62.4795 17.6667 62.9995 17.8C63.5329 17.92 64.0529 17.98 64.5595 17.98ZM82.2311 20V14.26H77.1511V20H74.7511V6.4H77.1511V11.96H82.2311V6.4H84.6311V20H82.2311Z" fill="white"/>
<path d="M1 22H86.5111V23H1V22Z" fill="white"/>
<path d="M0.13 28.35V27.2H5.13V28.35H3.23V34H2.03V28.35H0.13ZM11.3437 34V31.13H8.80367V34H7.60367V27.2H8.80367V29.98H11.3437V27.2H12.5437V34H11.3437ZM19.7601 32.85V34H15.8201V27.2H19.6601V28.35H17.0201V29.98H19.3601V31.13H17.0201V32.85H19.7601ZM25.9834 34V27.2H28.2834C29.0967 27.2 29.7167 27.4267 30.1434 27.88C30.57 28.3333 30.7834 29 30.7834 29.88V31.31C30.7834 32.1967 30.57 32.8667 30.1434 33.32C29.7167 33.7733 29.0967 34 28.2834 34H25.9834ZM28.2334 28.35H27.1834V32.85H28.2334C28.7067 32.85 29.0434 32.7333 29.2434 32.5C29.45 32.2667 29.5534 31.87 29.5534 31.31V29.88C29.5534 29.3267 29.45 28.9333 29.2434 28.7C29.0434 28.4667 28.7067 28.35 28.2334 28.35ZM37.7101 32.85V34H33.7701V27.2H37.6101V28.35H34.9701V29.98H37.3101V31.13H34.9701V32.85H37.7101ZM45.2914 27.2L43.1314 34H41.9014L39.7314 27.2H41.0514L42.0814 30.62L42.5514 32.38L43.0514 30.61L44.0714 27.2H45.2914ZM51.7112 32.85V34H47.7712V27.2H51.6112V28.35H48.9712V29.98H51.3112V31.13H48.9712V32.85H51.7112ZM58.4526 32.85V34H54.5326V27.2H55.7326V32.85H58.4526ZM65.7621 29.88V31.31C65.7621 32.1767 65.5454 32.86 65.1121 33.36C64.6788 33.8533 64.0454 34.1 63.2121 34.1C62.3721 34.1 61.7354 33.8533 61.3021 33.36C60.8754 32.86 60.6621 32.1767 60.6621 31.31V29.88C60.6621 29.0133 60.8754 28.3333 61.3021 27.84C61.7354 27.3467 62.3721 27.1 63.2121 27.1C64.0454 27.1 64.6788 27.3467 65.1121 27.84C65.5454 28.3333 65.7621 29.0133 65.7621 29.88ZM64.5321 29.88C64.5321 29.3333 64.4254 28.9233 64.2121 28.65C63.9988 28.37 63.6654 28.23 63.2121 28.23C62.7588 28.23 62.4254 28.37 62.2121 28.65C61.9988 28.9233 61.8921 29.3333 61.8921 29.88V31.31C61.8921 31.8567 61.9988 32.27 62.2121 32.55C62.4254 32.83 62.7588 32.97 63.2121 32.97C63.6654 32.97 63.9988 32.83 64.2121 32.55C64.4254 32.27 64.5321 31.8567 64.5321 31.31V29.88ZM68.7486 34V27.2H70.9886C71.7019 27.2 72.2353 27.38 72.5886 27.74C72.9486 28.1 73.1286 28.58 73.1286 29.18V29.71C73.1286 30.31 72.9486 30.7933 72.5886 31.16C72.2353 31.52 71.7019 31.7 70.9886 31.7H69.9486V34H68.7486ZM70.9886 28.35H69.9486V30.55H70.9886C71.2819 30.55 71.5053 30.4767 71.6586 30.33C71.8186 30.1833 71.8986 29.9767 71.8986 29.71V29.18C71.8986 28.92 71.8186 28.7167 71.6586 28.57C71.5053 28.4233 71.2819 28.35 70.9886 28.35ZM79.8308 32.85V34H75.8908V27.2H79.7308V28.35H77.0908V29.98H79.4308V31.13H77.0908V32.85H79.8308ZM83.8521 31.5V34H82.6521V27.2H84.9221C85.6088 27.2 86.1354 27.3767 86.5021 27.73C86.8754 28.0767 87.0621 28.5433 87.0621 29.13V29.56C87.0621 29.9467 86.9788 30.2867 86.8121 30.58C86.6454 30.8733 86.4054 31.0967 86.0921 31.25C86.6388 32.1833 87.1054 33.1 87.4921 34H86.1221C85.7888 33.1667 85.3921 32.3333 84.9321 31.5H83.8521ZM84.9221 28.3H83.8521V30.4H84.9221C85.2154 30.4 85.4388 30.3267 85.5921 30.18C85.7521 30.0267 85.8321 29.82 85.8321 29.56V29.13C85.8321 28.8767 85.7521 28.6767 85.5921 28.53C85.4388 28.3767 85.2154 28.3 84.9221 28.3Z" fill="#E8E8E8"/>
</svg>
